<?xml version="1.0" encoding="UTF-8" standalone="no"?>
<!-- Created with Inkscape (http://www.inkscape.org/) -->

<svg
   width="130.04639mm"
   height="127.11569mm"
   viewBox="0 0 130.04639 127.11569"
   version="1.1"
   id="svg1"
   xml:space="preserve"
   xmlns="http://www.w3.org/2000/svg"
   xmlns:svg="http://www.w3.org/2000/svg"><defs
     id="defs1" /><g
     id="g6"
     transform="translate(-395.8862,-279.89447)"><path
       style="fill:#000000;stroke-width:0.565794"
       d="m 455.62881,406.73056 c -30.08525,-3.15476 -55.50652,-24.77437 -59.12421,-50.28234 -0.93781,-6.61244 -0.79236,-16.67146 0.32347,-22.37104 3.8284,-19.55509 18.06423,-38.26817 35.54546,-46.72472 6.78378,-3.28166 11.52702,-5.17918 14.22832,-5.69202 0.82335,-0.15631 1.9461,-0.41179 2.495,-0.56774 7.92451,-2.25137 21.47645,-1.27338 34.03174,2.45595 35.5877,10.57069 53.60763,54.92139 35.93871,88.45246 -11.71042,22.22336 -39.19789,37.27142 -63.43849,34.72949 z m 10.69783,-1.49577 c 2.29134,-0.32251 2.11133,-0.0989 2.20156,-2.73503 0.0756,-2.20776 0.0756,-2.20776 -0.79571,-2.08176 -0.4792,0.0693 -2.3533,0.26276 -4.16466,0.4299 -1.81137,0.16713 -3.39951,0.34154 -3.52919,0.38757 -0.12968,0.046 -1.16261,0.18158 -2.2954,0.30122 -1.13278,0.11964 -2.77817,0.35003 -3.6564,0.51197 -8.19372,1.51092 -8.55755,2.01103 -2.0958,2.8809 5.97455,0.80429 10.15712,0.89335 14.3356,0.30523 z m 9.09931,-1.59518 c 2.07588,-0.51006 4.32138,-1.13667 4.98999,-1.39248 0.66861,-0.2558 2.02403,-0.73455 3.01205,-1.06389 16.07728,-5.35902 31.50802,-20.16178 37.14722,-35.63544 3.15567,-8.659 4.89097,-21.41394 3.85545,-28.33864 -2.76868,-18.51451 -9.70035,-31.26603 -22.63508,-41.63954 -2.31818,-1.85915 -3.77429,-2.87004 -8.31402,-5.77192 -2.63145,-1.68207 -9.23987,-4.5287 -11.65037,-5.0185 -0.65868,-0.13383 -2.23052,-0.53873 -3.49299,-0.89976 -3.61175,-1.03285 -5.86315,-1.48349 -8.98198,-1.79781 -4.68809,-0.47247 -5.15601,-0.38401 -2.0958,0.39623 1.42713,0.36387 4.03191,1.24202 5.78839,1.95145 1.75647,0.70942 3.41814,1.35941 3.69259,1.44442 0.61545,0.19062 2.14238,0.8859 5.39172,2.45508 1.37363,0.66336 2.97636,1.39486 3.56163,1.62555 0.58525,0.23068 2.15717,0.99773 3.49313,1.70454 1.33597,0.70682 2.82389,1.42443 3.3065,1.59471 0.83453,0.29444 1.83137,0.83373 5.39322,2.91774 5.10867,2.98904 10.36835,7.94242 14.43851,13.59767 0.57554,0.79969 1.41948,1.9239 1.87539,2.49825 6.70695,8.44908 10.28318,22.97546 8.75993,35.58224 -0.6704,5.54847 -1.19069,7.48509 -4.45075,16.56676 -4.7029,13.10103 -14.42812,24.38899 -26.40011,30.64231 -1.91098,0.99816 -7.77272,2.9467 -9.88018,3.28434 -1.20758,0.19346 -2.94004,0.58779 -3.84991,0.87627 -2.16926,0.6878 -3.50677,0.83461 -4.63307,0.50857 -0.8982,-0.26001 -0.8982,-0.26001 0.89819,-0.40608 2.04992,-0.16668 4.27897,-0.70883 4.41944,-1.07488 0.16094,-0.4194 1.48016,-0.86251 3.46475,-1.16375 3.14732,-0.47773 8.04734,-2.43824 11.97598,-4.7916 3.17295,-1.90068 10.97188,-8.06316 10.97974,-8.67584 0.001,-0.0757 0.49721,-0.67648 1.10275,-1.33517 1.43832,-1.56454 4.98641,-6.45759 5.78941,-7.98398 0.34651,-0.65868 1.09618,-2.01565 1.66593,-3.0155 0.94892,-1.66527 1.28714,-2.44501 2.45809,-5.66709 7.23054,-19.89605 -2.85475,-37.69331 -24.56332,-43.34625 -3.93824,-1.02553 -9.74332,-2.73568 -13.33464,-3.92833 -1.88489,-0.62596 -3.39238,-1.08198 -3.34998,-1.01337 0.24581,0.39773 6.24653,2.68311 13.06443,4.97561 12.40272,4.17035 21.48328,9.80415 24.52022,15.21294 0.41973,0.74754 0.29315,0.65491 -1.0149,-0.74274 -2.67645,-2.8598 -7.35103,-6.33231 -11.42954,-8.49044 -4.37291,-2.31391 -5.34507,-2.71757 -11.47698,-4.76554 -8.54322,-2.85332 -14.40102,-5.4223 -21.45696,-9.4101 -0.98802,-0.5584 -2.33532,-1.29466 -2.99399,-1.63613 -0.65868,-0.34147 -1.48806,-0.83245 -1.84308,-1.09108 -1.14418,-0.83354 -4.64392,-2.83641 -4.64392,-2.65768 0,0.40723 4.32828,4.65804 7.08579,6.95897 5.45996,4.5559 12.52051,8.58069 21.22686,12.10016 8.57596,3.46675 10.00739,4.18802 15.19519,7.65656 7.17191,4.79509 11.33858,9.66008 12.95821,15.12994 1.66191,5.61266 1.44049,12.04982 -0.56563,16.44468 -0.42594,0.93313 -1.09622,2.40036 -1.48952,3.26051 -2.48785,5.44105 -12.02048,13.81435 -18.57876,16.31927 -0.88044,0.33628 -2.16897,0.9207 -2.8634,1.29873 -0.69443,0.37801 -1.78914,0.90126 -2.43269,1.16275 -1.04974,0.42655 -3.00628,1.78845 -5.88549,4.09672 -0.5489,0.44005 -1.53692,1.08577 -2.19559,1.43491 -0.65868,0.34916 -1.67763,0.97526 -2.26432,1.39135 -0.5867,0.41609 -1.52981,0.90671 -2.0958,1.09026 -1.87487,0.60801 -2.94938,1.1315 -2.85065,1.38881 0.0948,0.24707 -0.86441,0.61071 -2.93592,1.11298 -1.15348,0.27968 -1.09135,0.12356 -1.17295,2.94765 -0.0776,2.68711 -0.0603,2.69021 6.31159,1.1246 z m -28.29381,-0.71796 c 2.38811,-1.07725 3.72546,-1.51621 5.0585,-1.66034 0.71357,-0.0771 1.61177,-0.22252 1.996,-0.32303 1.17999,-0.30869 3.34829,-0.56754 6.68659,-0.79827 2.89602,-0.20016 5.7095,-0.65989 7.43509,-1.21491 0.63972,-0.20576 0.64866,-0.2257 0.64597,-1.44066 -0.005,-2.28178 0.15925,-2.19799 -2.76001,-1.40757 -1.38966,0.37626 -3.24522,0.86358 -4.12346,1.08292 -2.08979,0.52193 -4.56316,1.25035 -6.76679,1.99285 -1.88076,0.63372 -2.43398,0.67874 -1.17443,0.0956 0.4156,-0.19243 1.51911,-0.78358 2.45223,-1.31367 1.33375,-0.75768 2.2302,-1.09071 4.1916,-1.55718 1.37224,-0.32636 3.21356,-0.85721 4.09179,-1.17966 0.87824,-0.32246 2.06863,-0.69764 2.64531,-0.83374 1.30102,-0.30705 1.32892,-0.35441 0.97085,-1.64812 -0.16047,-0.57982 -0.51678,-1.8626 -0.7918,-2.85062 -4.55439,-16.36224 -17.5161,-25.47887 -32.1591,-22.61912 -9.62752,1.88023 -15.46279,-2.35879 -13.011,-9.45181 0.91579,-2.6494 0.78354,-3.18202 -1.27986,-5.1544 -1.76979,-1.69173 -1.96577,-2.53905 -1.02587,-4.43536 0.60602,-1.2227 0.60602,-1.2227 -0.63534,-2.43556 -1.8482,-1.80577 -2.11935,-3.0119 -1.12637,-5.01034 1.13021,-2.27462 0.79162,-3.23946 -1.7634,-5.02491 -4.63501,-3.23896 -4.89336,-5.52309 -1.07387,-9.49442 5.16425,-5.36955 6.80305,-8.75394 7.41622,-15.3157 0.11797,-1.26247 0.30991,-3.32833 0.42652,-4.5908 0.51525,-5.57816 1.93054,-9.6996 4.71899,-13.74209 1.53856,-2.23048 1.51462,-2.30847 -0.37147,-1.21059 -5.36921,3.12539 -12.80334,9.7152 -16.33271,14.47774 -3.20018,4.31834 -3.97509,5.44625 -5.33161,7.76033 -7.52787,12.84181 -10.073,24.06667 -8.82516,38.9219 1.97042,23.45734 18.38156,41.33552 46.69151,50.86541 0.76351,0.25701 1.85855,0.0875 3.12508,-0.48386 z m 24.27369,-4.84895 c 0.50351,-0.15153 1.16898,-0.45271 1.47883,-0.66928 0.30984,-0.21657 1.37416,-0.74893 2.36514,-1.18302 2.32704,-1.01934 8.74373,-5.25736 8.432,-5.56909 -0.0808,-0.0808 -1.57496,0.38632 -5.43613,1.69932 -1.82982,0.62224 -2.43479,0.75216 -1.90347,0.40879 0.42362,-0.27376 0.0479,-0.24007 -0.998,0.0895 -0.494,0.15567 -0.76346,0.29267 -0.59879,0.30447 0.16466,0.0118 -0.5988,0.3645 -1.6966,0.78379 -3.62312,1.38379 -3.49299,1.29837 -3.49299,2.29299 0,0.47881 -0.0561,1.15125 -0.12476,1.49432 -0.148,0.74002 0.36966,0.8313 1.97477,0.34823 z m 4.20451,-5.04714 c 0.0732,-0.0732 0.19294,-0.0732 0.26613,0 0.0732,0.0732 0.0133,0.13307 -0.13307,0.13307 -0.14637,0 -0.20625,-0.0599 -0.13306,-0.13307 z m -3.9091,-0.0404 c 0.96072,-0.42475 2.72677,-1.11542 3.92456,-1.53481 1.87035,-0.6549 2.43391,-0.96469 3.99199,-2.1944 0.99781,-0.78752 2.80222,-2.02029 4.0098,-2.7395 8.97075,-5.34281 11.9026,-13.425 7.56441,-20.85267 -0.2725,-0.46657 -0.4243,-0.84813 -0.33734,-0.84792 0.22767,5.6e-4 1.37022,1.74071 1.8345,2.79401 0.63132,1.43226 0.30724,-0.10724 -0.4353,-2.06781 -2.54611,-6.72265 -10.50969,-10.95982 -17.10861,-9.10293 -8.46555,2.38214 -11.48935,13.54498 -4.85876,17.9369 0.93456,0.61903 0.93456,0.61903 0.32334,0.61903 -3.14505,0 -5.80615,-6.15648 -4.5464,-10.51813 4.72284,-16.35179 28.74316,-10.05831 28.71734,7.52414 -0.008,5.24413 -0.93026,8.74559 -3.14867,11.95035 -2.534,3.66067 -2.66041,3.93689 -1.47955,3.23296 0.5829,-0.34748 1.59874,-0.86992 2.25742,-1.16098 9.1176,-4.02893 17.41188,-11.48575 19.26042,-17.31573 0.13924,-0.43912 0.59222,-1.61954 1.00663,-2.62316 3.65219,-8.84487 0.40845,-20.37134 -7.44187,-26.44428 -1.80385,-1.39544 -1.86028,-1.3482 -0.62682,0.52469 3.94272,5.98663 5.54872,11.55343 4.75065,16.46697 -0.15639,0.96288 -0.19261,0.70531 -0.29471,-2.09579 -0.13238,-3.63195 -0.85935,-6.30768 -2.70096,-9.94136 -3.93951,-7.77302 -7.58694,-10.60781 -19.44233,-15.11067 -13.64943,-5.18424 -24.27077,-12.5056 -31.125,-21.45466 -0.92491,-1.20757 -2.0237,-2.58889 -2.44178,-3.06959 -3.66468,-4.21364 -7.29619,-13.29524 -8.05104,-20.13386 -0.16166,-1.46459 0.006,-1.42341 -2.3341,-0.5729 -12.58926,4.57537 -16.8082,10.11679 -17.72209,23.27735 -0.44458,6.40213 -1.13069,9.61304 -2.54876,11.92784 -0.38611,0.63027 -1.00643,1.67528 -1.3785,2.32225 -0.76465,1.32963 -1.11451,1.78461 -3.36061,4.37035 -0.87836,1.01117 -1.88883,2.17845 -2.2455,2.59395 -1.22541,1.42752 -0.78494,3.29669 1.08102,4.58742 4.19404,2.90111 4.98105,4.52069 3.65969,7.5313 -1.11569,2.54198 -0.72788,3.01479 3.53536,4.31015 2.76813,0.84109 4.90631,1.27864 6.24832,1.27864 1.48512,0 2.06175,0.79188 0.97893,1.34436 -0.64519,0.32919 -2.0941,0.31419 -4.27563,-0.0443 -3.68381,-0.60527 -4.88838,-0.28131 -5.2037,1.39948 -0.18706,0.99716 0.0326,1.40198 1.27207,2.34406 2.12232,1.61311 2.46705,3.05861 1.53396,6.43191 -2.46479,8.91057 5.38359,10.17392 24.55323,3.95233 17.35711,-5.63333 27.51934,-20.94043 24.15622,-36.38585 -0.0811,-0.37244 -0.0309,-0.33168 0.19789,0.16069 1.80166,3.87704 1.18237,12.40909 -1.34294,18.50186 -0.86605,2.08952 -2.40893,4.55919 -4.46621,7.14902 -4.45666,5.61033 -10.32743,9.47164 -18.93797,12.45583 -3.98802,1.38215 -3.91804,1.27082 -1.2691,2.01895 11.15958,3.15175 20.00954,13.52598 21.80983,25.56621 0.28701,1.91955 0.41373,2.41049 0.62215,2.41049 0.0483,0 0.8738,-0.34751 1.83452,-0.77226 z m 27.41186,-16.30569 c 1.59956,-1.75856 4.92118,-7.19218 7.40507,-12.11349 0.92194,-1.82664 1.07962,-1.9525 0.56228,-0.44881 -1.06989,3.10966 -6.76347,12.18656 -8.18349,13.04638 -0.40154,0.24313 -0.35932,0.14858 0.21614,-0.48408 z m -65.08602,-54.30674 c 0,-0.0702 0.15719,-0.24701 0.3493,-0.39285 0.30585,-0.23217 0.22516,-0.26738 -0.6487,-0.28301 -1.33082,-0.0238 -2.88408,-0.32767 -1.996,-0.39048 0.5988,-0.0423 0.5988,-0.0423 -0.14969,-0.34944 -0.99798,-0.40944 -0.95339,-0.50282 0.43735,-0.91568 1.44952,-0.4303 1.81909,-0.74981 2.35017,-2.03183 0.22738,-0.54891 0.50673,-1.22255 0.62078,-1.497 0.17368,-0.41793 0.20956,-0.28228 0.22087,0.83484 0.0162,1.59763 0.12219,1.66577 2.2753,1.46256 2.42594,-0.22895 5.29213,-1.05218 9.18142,-2.6371 3.08184,-1.25588 3.16163,-1.09483 0.61599,1.24327 -3.37434,3.09926 -5.57419,4.23989 -9.24404,4.7931 -1.99831,0.30123 -4.01275,0.38337 -4.01275,0.16362 z m -4.66292,-13.5999 c -0.1953,-0.31602 0.41154,-2.79512 0.86303,-3.52564 2.80576,-4.53982 12.34489,-4.22425 18.69398,0.61845 1.0293,0.78508 0.76926,0.75607 -2.01089,-0.22434 -7.83959,-2.76463 -14.08212,-1.96137 -16.62056,2.13865 -0.74964,1.2108 -0.77443,1.2374 -0.92556,0.99288 z m 51.47901,81.42102 c 0.1043,-0.0937 1.26746,-0.558 2.58482,-1.0317 3.81035,-1.37015 4.0996,-1.61034 7.29657,-6.05922 0.95253,-1.32553 1.61529,-2.96201 1.88067,-4.64371 0.12117,-0.76788 0.12046,-0.76737 -0.33631,0.24204 -1.22281,2.70229 -5.33284,6.87311 -8.84093,8.97168 -2.07928,1.24384 -3.09379,2.0377 -3.09379,2.42088 0,0.30714 0.22855,0.35206 0.50897,0.10003 z m 39.92435,-36.79943 c 4.76781,-21.21481 -5.27869,-32.89638 -36.24173,-42.14016 -15.81159,-4.72043 -27.27412,-13.52011 -34.75067,-26.67776 -1.21146,-2.132 -1.48826,-1.93434 -0.97721,0.6978 1.55107,7.98891 7.18989,17.10004 14.22191,22.97961 4.67114,3.9056 12.27945,7.82336 19.50997,10.04632 1.48203,0.45563 3.54789,1.09088 4.59079,1.41166 1.04291,0.32078 3.15368,0.93861 4.69059,1.37297 2.51406,0.71051 6.86935,2.22107 8.98199,3.11527 12.02746,5.09075 19.48382,16.91675 19.0012,30.13641 -0.13485,3.69389 -0.0504,3.61208 0.97316,-0.94212 z m 0.3859,-21.43867 c -1.51868,-12.3364 -12.14814,-27.99119 -23.75346,-34.98345 -1.27648,-0.76909 -8.56133,-4.42271 -15.26937,-7.65816 -2.41872,-1.1666 -7.69322,-3.37639 -11.17758,-4.68293 -2.8381,-1.0642 -9.81781,-2.55608 -12.88306,-2.75369 -4.45755,-0.28736 -4.02846,0.99716 2.5594,7.6619 8.81903,8.92194 16.43667,13.22622 35.97221,20.32576 8.48814,3.08473 14.55856,7.2419 19.18566,13.13881 1.30982,1.66926 2.28248,3.56174 3.87906,7.54739 0.90875,2.26858 1.68629,4.09068 1.72785,4.04912 0.0416,-0.0416 -0.0668,-1.23171 -0.24071,-2.64475 z m -24.55186,-23.35332 c -0.65867,-0.26922 -1.91615,-0.74739 -2.79439,-1.0626 -3.55306,-1.27523 -14.56957,-6.30875 -16.16757,-7.38707 -0.88147,-0.59481 -0.56093,-0.50173 1.41349,0.41046 0.9728,0.44943 3.11858,1.35555 4.76841,2.01361 5.0746,2.02406 13.55466,5.80803 14.06083,6.27422 0.30208,0.27823 -0.25756,0.16959 -1.28077,-0.24862 z m -19.86016,-8.95616 c 0,-0.0549 0.0449,-0.0998 0.0998,-0.0998 0.0549,0 0.0998,0.0449 0.0998,0.0998 0,0.0549 -0.0449,0.0998 -0.0998,0.0998 -0.0549,0 -0.0998,-0.0449 -0.0998,-0.0998 z m 40.50322,27.2171 c -3.55235,-6.46255 -11.99019,-12.64697 -22.14005,-16.22726 -14.54773,-5.1316 -20.58951,-8.07106 -28.07396,-13.6586 -5.18804,-3.87314 -11.27262,-10.11565 -13.69157,-14.04694 -0.58559,-0.95172 -0.63864,-0.98656 -1.32827,-0.87249 -0.39508,0.0653 -0.85306,0.12119 -1.01772,0.12408 -1.30608,0.0229 0.24088,3.17702 3.96433,8.08292 7.05408,9.29424 19.22615,17.20568 31.1652,20.25637 14.36001,3.6693 24.45836,8.95103 30.1636,15.77643 0.9153,1.095 1.68168,1.99091 1.70306,1.99091 0.0214,0 -0.31369,-0.64143 -0.74462,-1.42542 z m -51.27638,-14.9023 c -10.03204,-6.884 -18.76759,-20.02037 -18.76759,-28.22239 0,-0.20018 -0.145,-0.35978 -0.32688,-0.35978 -1.20655,0 1.21003,9.18337 3.80395,14.45554 2.90279,5.89998 4.62671,7.55398 14.3871,13.80359 1.02681,0.65747 1.78682,0.92923 0.90342,0.32304 z"
       id="path5-8" /></g></svg>
