<?xml version="1.0" encoding="UTF-8" standalone="no"?>
<!-- Created with Inkscape (http://www.inkscape.org/) -->

<svg
   width="249.30299mm"
   height="323.32144mm"
   viewBox="0 0 249.303 323.32144"
   version="1.1"
   id="svg1"
   xml:space="preserve"
   xmlns="http://www.w3.org/2000/svg"
   xmlns:svg="http://www.w3.org/2000/svg"><defs
     id="defs1"><rect
       x="62.650429"
       y="945.14734"
       width="868.7149"
       height="181.21712"
       id="rect4" /><rect
       x="62.650429"
       y="945.14734"
       width="868.7149"
       height="181.21712"
       id="rect4-1" /></defs><g
     id="layer1"
     transform="translate(-6.8485096,0.86525708)"><path
       style="fill:#000000;stroke-width:1.08465"
       d="M 121.37696,242.28351 C 63.702578,236.23573 14.969206,194.79026 8.0339947,145.8907 6.2361727,133.21444 6.5150027,113.93098 8.6540967,103.0047 15.993263,65.516999 43.283784,29.643429 76.795852,13.431959 89.800576,7.140921 98.893513,3.5033103 104.072,2.5201846 c 1.57839,-0.2996528 3.73073,-0.7894178 4.78298,-1.0883678 15.19154,-4.3159586 41.17102,-2.4411178 65.23991,4.7081187 68.22274,20.2643455 102.76752,105.2860245 68.89564,169.5661145 -22.44925,42.6029 -75.14358,71.45048 -121.61357,66.57754 z m 20.50807,-2.86745 c 4.39258,-0.61826 4.04749,-0.18954 4.22046,-5.24313 0.14486,-4.23236 0.14486,-4.23236 -1.52539,-3.99079 -0.91864,0.13285 -4.51136,0.50372 -7.98379,0.82412 -3.47246,0.32039 -6.51696,0.65475 -6.76557,0.74298 -0.24861,0.0883 -2.22876,0.3481 -4.40035,0.57745 -2.17158,0.22935 -5.32583,0.67102 -7.00944,0.98147 -15.70762,2.89647 -16.40508,3.8552 -4.0177,5.52277 11.4534,1.54185 19.47151,1.71257 27.48178,0.58513 z m 17.44366,-3.058 c 3.97953,-0.9778 8.28422,-2.17904 9.56597,-2.66943 1.28174,-0.49038 3.88013,-1.40816 5.77419,-2.03951 30.82065,-10.27341 60.40186,-38.65076 71.21239,-68.31426 6.04952,-16.59956 9.37614,-41.05119 7.39101,-54.32604 C 247.9646,73.515922 234.67638,49.070856 209.88009,29.184517 205.43607,25.620461 202.64467,23.682564 193.94186,18.119563 188.89729,14.894989 176.22873,9.4378992 171.60774,8.4989512 170.34503,8.2423794 167.33176,7.4661888 164.91157,6.7740831 157.98773,4.7940632 153.67174,3.9301833 147.69282,3.3276184 c -8.9872,-0.905745 -9.88423,-0.7361531 -4.01771,0.7595912 2.73587,0.6975441 7.7293,2.380984 11.09653,3.7409774 3.36722,1.3599932 6.55269,2.606043 7.07882,2.768999 1.17983,0.365431 4.10701,1.698301 10.33608,4.706473 2.63331,1.271687 5.70579,2.673988 6.82776,3.116224 1.12196,0.442235 4.13536,1.912687 6.69645,3.267669 2.56108,1.354984 5.41347,2.730676 6.33865,3.057097 1.59983,0.564456 3.5108,1.59829 10.33898,5.593399 9.79348,5.730082 19.87645,15.22587 27.67907,26.067157 1.10334,1.533037 2.72119,3.688192 3.59519,4.78923 12.85742,16.197138 19.71317,44.044675 16.79306,68.212255 -1.28519,10.6366 -2.2826,14.34915 -8.53223,31.75901 -9.0156,25.11507 -27.65916,46.75445 -50.60984,58.74225 -3.6634,1.91351 -14.90055,5.64892 -18.9406,6.29618 -2.31497,0.37088 -5.63616,1.12681 -7.38041,1.67985 -4.15854,1.31853 -6.72258,1.59997 -8.88174,0.97494 -1.72188,-0.49845 -1.72188,-0.49845 1.72187,-0.77847 3.92975,-0.31954 8.2029,-1.35884 8.47219,-2.06058 0.30852,-0.804 2.83753,-1.65345 6.64204,-2.23094 6.03351,-0.91583 15.42701,-4.67418 22.95833,-9.18565 6.08263,-3.64367 21.03344,-15.45733 21.0485,-16.63186 0.002,-0.14504 0.95317,-1.29684 2.114,-2.55955 2.75732,-2.99928 9.55912,-12.37942 11.09848,-15.30555 0.66428,-1.2627 2.10142,-3.86407 3.19364,-5.7808 1.81912,-3.19237 2.46749,-4.68717 4.71224,-10.86398 13.86117,-38.14137 -5.47264,-72.259263 -47.08866,-83.096122 -7.54973,-1.965972 -18.67824,-5.24439 -25.56292,-7.530744 -3.61339,-1.199981 -6.50328,-2.07417 -6.422,-1.942643 0.47123,0.762458 11.97478,5.143598 25.04492,9.538379 23.7764,7.994691 41.18411,18.794874 47.00602,29.16368 0.80463,1.43307 0.56198,1.25549 -1.94559,-1.42384 -5.13084,-5.48233 -14.09216,-12.13924 -21.9108,-16.276446 -8.383,-4.435832 -10.24665,-5.209669 -22.00172,-9.135693 -16.37762,-5.469895 -27.6072,-10.394706 -41.13367,-18.039452 -1.89406,-1.070465 -4.47687,-2.481889 -5.73957,-3.136498 -1.26271,-0.654608 -2.85266,-1.595846 -3.53323,-2.091639 -2.19344,-1.597919 -8.90254,-5.437494 -8.90254,-5.094858 0,0.780677 8.29744,8.929609 13.58368,13.340556 10.46691,8.733808 24.00221,16.449459 40.69255,23.196382 16.44038,6.645882 19.18447,8.028572 29.12965,14.677858 13.74878,9.19235 21.73642,18.51869 24.84129,29.00459 3.18593,10.75963 2.76148,23.09986 -1.08432,31.52495 -0.81654,1.78884 -2.1015,4.60157 -2.85545,6.2505 -4.7693,10.43066 -23.04365,26.48254 -35.61608,31.28454 -1.68783,0.64466 -4.15798,1.76502 -5.48923,2.48971 -1.33124,0.72467 -3.42983,1.72775 -4.66354,2.22904 -2.01237,0.81771 -5.76313,3.4285 -11.28266,7.85354 -1.05226,0.84359 -2.94632,2.08144 -4.20902,2.75077 -1.26271,0.66933 -3.21606,1.86959 -4.34077,2.66725 -1.12472,0.79767 -2.93269,1.73819 -4.01771,2.09006 -3.59418,1.16559 -5.65407,2.16914 -5.46479,2.66239 0.18176,0.47365 -1.6571,1.17075 -5.62824,2.13363 -2.21127,0.53616 -2.09216,0.23686 -2.24859,5.65074 -0.14883,5.15127 -0.11554,5.1572 12.09951,2.15589 z m -54.2401,-1.37635 c 4.57808,-2.06513 7.14181,-2.90663 9.69729,-3.18293 1.36793,-0.1479 3.08981,-0.42657 3.82639,-0.61926 2.26208,-0.59176 6.41878,-1.088 12.8184,-1.53031 5.55177,-0.38372 10.94529,-1.26503 14.2533,-2.32901 1.22637,-0.39445 1.24351,-0.43267 1.23835,-2.7618 -0.01,-4.37424 0.30529,-4.21362 -5.29103,-2.69836 -2.66401,0.72131 -6.22117,1.65551 -7.90479,2.07599 -4.00621,1.00056 -8.74773,2.39696 -12.97215,3.82037 -3.60548,1.21486 -4.66602,1.30116 -2.25142,0.18322 0.79671,-0.36889 2.91217,-1.50214 4.701,-2.51834 2.55685,-1.45249 4.27536,-2.09092 8.03542,-2.98517 2.63064,-0.62564 6.16049,-1.64329 7.8441,-2.26144 1.68361,-0.61816 3.96563,-1.3374 5.07114,-1.59831 2.49409,-0.58862 2.54757,-0.67942 1.86116,-3.1595 -0.30764,-1.11153 -0.9907,-3.57065 -1.51791,-5.46471 -8.73091,-31.36694 -33.57893,-48.8438 -61.650014,-43.36157 -18.456259,3.60447 -29.642662,-4.52187 -24.942503,-18.11942 1.755607,-5.07897 1.502082,-6.10002 -2.453522,-9.88114 -3.392749,-3.2431 -3.768448,-4.86744 -1.966635,-8.50271 1.161763,-2.34396 1.161763,-2.34396 -1.21797,-4.66906 -3.543048,-3.46172 -4.062843,-5.7739 -2.159269,-9.60497 2.166644,-4.36053 1.51756,-6.21014 -3.380503,-9.63291 C 37.841967,99.971194 37.346707,95.592444 44.668778,87.979271 54.568813,77.685673 57.710445,71.19769 58.885907,58.618588 c 0.22616,-2.420189 0.594104,-6.3805 0.817649,-8.80069 0.987754,-10.693517 3.700908,-18.594444 9.046463,-26.344021 2.949454,-4.275901 2.903573,-4.425413 -0.712124,-2.320736 C 57.744958,27.144602 43.493489,39.777479 36.72758,48.907422 30.592729,57.185814 29.107199,59.348047 26.506718,63.784212 12.075546,88.402356 7.1964527,109.92077 9.5886057,138.3987 c 3.7773643,44.96845 35.2380323,79.24149 89.5090873,97.51057 1.463677,0.49271 3.562917,0.1677 5.990897,-0.92756 z m 46.53342,-9.29559 c 0.96523,-0.29049 2.24096,-0.86786 2.83494,-1.28304 0.59398,-0.41517 2.63431,-1.43572 4.53406,-2.26788 4.46102,-1.9541 16.762,-10.07853 16.16441,-10.67611 -0.15483,-0.15485 -3.01926,0.74057 -10.42122,3.25763 -3.50784,1.19286 -4.66759,1.44193 -3.64902,0.78368 0.81208,-0.52481 0.0918,-0.46023 -1.9132,0.17154 -0.94702,0.2984 -1.46359,0.56105 -1.14791,0.58367 0.31568,0.0226 -1.14791,0.69876 -3.25243,1.50254 -6.94563,2.65277 -6.69618,2.48901 -6.69618,4.39573 0,0.91791 -0.10759,2.207 -0.23915,2.86466 -0.28372,1.41864 0.70864,1.59364 3.7857,0.66758 z m 8.06016,-9.67554 c 0.1403,-0.1403 0.36988,-0.1403 0.51018,0 0.14031,0.14031 0.0255,0.2551 -0.25508,0.2551 -0.28061,0 -0.3954,-0.11479 -0.2551,-0.2551 z m -7.49386,-0.0774 c 1.84173,-0.81425 5.22731,-2.13829 7.5235,-2.94228 3.58552,-1.25546 4.66588,-1.84934 7.65278,-4.20673 1.91283,-1.50969 5.37193,-3.87296 7.6869,-5.25171 17.19721,-10.24233 22.81766,-25.73615 14.50122,-39.97522 -0.52239,-0.89442 -0.81341,-1.62588 -0.6467,-1.62548 0.43646,0.001 2.62677,3.33699 3.5168,5.35621 1.21026,2.74568 0.58898,-0.20559 -0.83449,-3.96406 -4.88097,-12.88753 -20.14739,-21.01031 -32.79773,-17.4506 -16.22873,4.56662 -22.02545,25.96614 -9.3144,34.38559 1.79158,1.18669 1.79158,1.18669 0.61985,1.18669 -6.02916,0 -11.13058,-11.80216 -8.71558,-20.16356 9.05382,-31.3469 55.10152,-19.2821 55.05204,14.42399 -0.0147,10.05316 -1.78334,16.76558 -6.03611,22.9092 -4.85777,7.01763 -5.1001,7.54715 -2.83634,6.19769 1.11744,-0.66614 3.06483,-1.66768 4.32755,-2.22564 17.47872,-7.72358 33.37912,-22.01855 36.92282,-33.19479 0.26692,-0.84181 1.1353,-3.10471 1.92973,-5.02868 7.00137,-16.95589 0.78302,-39.05249 -14.26628,-50.69451 -3.45803,-2.67511 -3.56623,-2.58455 -1.20164,1.00585 7.55832,11.47655 10.63707,22.14828 9.10714,31.56769 -0.29981,1.84587 -0.36924,1.35211 -0.56496,-4.0177 -0.25377,-6.96256 -1.6474,-12.09201 -5.17782,-19.05789 -7.55217,-14.90111 -14.5444,-20.33551 -37.27156,-28.967614 -26.16638,-9.938372 -46.52782,-23.973625 -59.66761,-41.129259 -1.77307,-2.314964 -3.87949,-4.962992 -4.68096,-5.884505 C 109.99116,39.108185 103.02943,21.69848 101.58236,8.5886162 101.27246,5.7809623 101.59406,5.859906 97.107823,7.4903643 72.973812,16.26144 64.88597,26.884529 63.134018,52.113731 c -0.852271,12.273071 -2.167566,18.428493 -4.886056,22.866032 -0.740183,1.208243 -1.929367,3.211565 -2.642629,4.451829 -1.465866,2.54894 -2.136556,3.421154 -6.442403,8.378095 -1.683836,1.93845 -3.620947,4.17616 -4.304686,4.97268 -2.349146,2.736603 -1.50475,6.319857 2.072356,8.794223 8.040107,5.56153 9.548816,8.66632 7.015724,14.43775 -2.138801,4.87306 -1.395352,5.77944 6.777395,8.26269 5.306595,1.61239 9.405567,2.45119 11.978226,2.45119 2.847021,0 3.952448,1.51806 1.876654,2.57718 -1.236854,0.63106 -4.014468,0.60232 -8.196524,-0.0848 -7.061984,-1.16031 -9.371172,-0.53928 -9.975656,2.68286 -0.358605,1.91157 0.06258,2.68763 2.438597,4.49362 4.068559,3.0924 4.729422,5.86346 2.940647,12.33018 -4.725073,17.08184 10.320519,19.50373 47.069317,7.57673 33.27413,-10.79927 52.75544,-40.14344 46.30823,-69.752812 -0.15546,-0.713965 -0.0592,-0.635838 0.37938,0.30805 3.45382,7.432421 2.26662,23.788622 -2.57446,35.468642 -1.66026,4.00568 -4.618,8.74012 -8.56187,13.70491 -8.54356,10.75518 -19.79802,18.15741 -36.30469,23.87821 -7.64516,2.64962 -7.511,2.43619 -2.43289,3.87039 21.39326,6.04201 38.35891,25.92972 41.81011,49.01123 0.55022,3.67984 0.79314,4.62098 1.19269,4.62098 0.0925,0 1.67509,-0.6662 3.51683,-1.48045 z m 52.54938,-31.25851 c 3.06642,-3.37122 9.43406,-13.78764 14.19575,-23.22194 1.7674,-3.50173 2.06968,-3.743 1.07791,-0.86038 -2.051,5.96131 -12.96578,23.36201 -15.68799,25.01031 -0.76976,0.46608 -0.68884,0.28483 0.41433,-0.92799 z M 79.96575,80.566913 c 0,-0.134637 0.301336,-0.473535 0.669616,-0.753106 0.586327,-0.445085 0.431646,-0.51257 -1.243567,-0.542533 -2.551216,-0.04563 -5.528871,-0.628167 -3.82639,-0.748577 1.147913,-0.08119 1.147913,-0.08119 -0.286976,-0.669885 -1.913151,-0.78491 -1.827659,-0.963923 0.83842,-1.755373 2.778786,-0.824911 3.487265,-1.437425 4.505346,-3.895099 0.435897,-1.052257 0.971419,-2.343663 1.190062,-2.869791 0.332942,-0.801172 0.401742,-0.541139 0.423424,1.600429 0.03102,3.062689 0.234229,3.193312 4.361814,2.803768 4.650604,-0.438902 10.145174,-2.017062 17.601081,-5.055403 5.90799,-2.407557 6.06094,-2.098832 1.18088,2.383387 -6.468737,5.941369 -10.685917,8.127996 -17.721146,9.188514 -3.830815,0.577462 -7.692564,0.734931 -7.692564,0.313669 z M 71.026798,54.49548 c -0.374409,-0.605811 0.788938,-5.358334 1.654442,-6.758751 5.378745,-8.702994 23.665553,-8.09802 35.83697,1.18558 1.9732,1.505031 1.47469,1.449413 -3.85495,-0.430072 -15.028754,-5.299872 -26.995863,-3.760001 -31.862145,4.099868 -1.43708,2.321144 -1.484609,2.372129 -1.774317,1.903375 z m 98.686882,156.08664 c 0.19994,-0.17969 2.42976,-1.0697 4.95517,-1.9778 7.30456,-2.62662 7.85906,-3.08708 13.98775,-11.61572 1.82603,-2.54109 3.09657,-5.67827 3.60531,-8.90213 0.2323,-1.47206 0.23092,-1.47108 -0.64472,0.464 -2.34416,5.18037 -10.22322,13.17595 -16.94834,17.19898 -3.98605,2.38448 -5.93089,3.90633 -5.93089,4.6409 0,0.5888 0.43814,0.67491 0.97572,0.19177 z M 246.2499,140.03646 C 255.38994,99.367024 236.13048,76.973078 176.77337,59.252459 146.46206,50.203248 124.48803,33.333997 110.15526,8.1103542 c -2.32241,-4.0870985 -2.85304,-3.7081896 -1.87336,1.337707 2.97347,15.3149918 13.78325,32.7813118 27.26386,44.0526328 8.95471,7.487162 23.54008,14.997638 37.40122,19.259098 2.8411,0.873464 6.80141,2.091253 8.80069,2.706198 1.99928,0.614945 6.04569,1.799358 8.99201,2.632029 4.81953,1.362066 13.16875,4.257873 17.21875,5.972069 23.05701,9.759146 37.35109,32.429942 36.4259,57.772442 -0.25851,7.0813 -0.0965,6.92448 1.86557,-1.80607 z m 0.73979,-41.098586 C 244.07832,75.288603 223.70132,45.277879 201.45356,31.873496 199.0065,30.39913 185.04123,23.395027 172.18171,17.192573 167.54493,14.956151 157.43356,10.719914 150.75393,8.2152524 145.3132,6.1751388 131.93287,3.3151602 126.0567,2.9363402 c -8.54526,-0.550887 -7.72269,1.9115854 4.90646,14.6881048 16.90635,17.103629 31.5096,25.355061 68.95985,38.965112 16.27203,5.913529 27.9092,13.882954 36.7795,25.187496 2.51096,3.200023 4.37559,6.827979 7.43628,14.468597 1.7421,4.34892 3.23266,7.84195 3.31234,7.76227 0.0797,-0.0797 -0.12796,-2.36122 -0.46144,-5.070046 z M 199.92301,54.168817 c -1.2627,-0.516098 -3.67333,-1.43276 -5.35695,-2.037027 -6.81131,-2.44466 -27.93032,-12.094073 -30.99373,-14.161244 -1.68981,-1.140274 -1.07532,-0.961838 2.70971,0.786854 1.86488,0.861577 5.97841,2.598645 9.14118,3.860153 9.72818,3.880195 25.98472,11.134189 26.95505,12.027884 0.57911,0.533364 -0.49374,0.325101 -2.45526,-0.47662 z m -38.07255,-17.16924 c 0,-0.105221 0.0861,-0.191319 0.19132,-0.191319 0.10521,0 0.19131,0.08609 0.19131,0.191319 0,0.105222 -0.0861,0.191319 -0.19131,0.191319 -0.10521,0 -0.19132,-0.08609 -0.19132,-0.191319 z m 77.64593,52.176041 C 232.68643,76.786694 216.51082,64.930977 197.05322,58.067453 169.16478,48.230014 157.5825,42.594983 143.23456,31.883487 133.28893,24.458557 121.62461,12.491474 116.98741,4.9550603 c -1.12261,-1.8244775 -1.2243,-1.8912688 -2.54635,-1.6725794 -0.75738,0.125282 -1.63533,0.2323169 -1.95101,0.2378562 -2.50378,0.043928 0.46179,6.0904521 7.59976,15.4952199 13.5229,17.817338 36.85712,32.983821 59.74467,38.832087 27.52859,7.034156 46.88743,17.1594 57.82455,30.243896 1.75465,2.099154 3.22383,3.816646 3.26483,3.816646 0.041,0 -0.60136,-1.229651 -1.42747,-2.732568 z M 141.19798,60.607448 C 121.96623,47.410592 105.21992,22.227758 105.21992,6.5042321 c 0,-0.3837551 -0.27798,-0.6897108 -0.62665,-0.6897108 -2.31299,0 2.31968,17.6048117 7.29229,27.7117357 5.56474,11.310437 8.86955,14.481204 27.58053,26.461906 1.96843,1.260388 3.42539,1.781364 1.73189,0.619285 z"
       id="path2" /><g
       id="g8"
       transform="translate(0,7.4083337)"><text
         xml:space="preserve"
         transform="matrix(0.30548699,0,0,0.30548699,-3.705888,-48.751485)"
         id="text3"
         style="font-style:normal;font-variant:normal;font-weight:bold;font-stretch:normal;font-size:146.667px;font-family:'Songti SC';-inkscape-font-specification:'Songti SC Bold';white-space:pre;shape-inside:url(#rect4);display:inline;fill:#273043;fill-rule:evenodd;stroke-width:1.3"><tspan
           x="62.650391"
           y="1089.6135"
           id="tspan2">MJ STUDIO</tspan></text><text
         xml:space="preserve"
         transform="matrix(0.26458333,0,0,0.26458333,47.689965,37.469641)"
         id="text3-1"
         style="font-style:normal;font-variant:normal;font-weight:bold;font-stretch:normal;font-size:96px;font-family:'Songti SC';-inkscape-font-specification:'Songti SC Bold';white-space:pre;shape-inside:url(#rect4-1);display:inline;fill:#273043;fill-rule:evenodd;stroke-width:1.3"><tspan
           x="62.650391"
           y="1039.7065"
           id="tspan3">face massage</tspan></text></g></g></svg>
